<?xml version="1.0" encoding="UTF-8" standalone="no"?>
<!DOCTYPE svg PUBLIC "-//W3C//DTD SVG 1.1//EN" "http://www.w3.org/Graphics/SVG/1.1/DTD/svg11.dtd">
<svg xmlns="http://www.w3.org/2000/svg" version="1.1" viewBox="0.00 0.00 2218.00 945.00">
<path fill="#1014c5" d="
  M 615.02 97.76
  C 602.87 108.30 595.56 126.21 601.36 141.44
  Q 604.74 150.31 613.08 157.58
  Q 623.86 166.98 639.62 175.84
  C 692.12 205.34 752.41 243.74 743.31 314.07
  Q 736.69 365.18 701.94 399.61
  C 662.26 438.93 602.36 451.86 548.46 441.63
  C 499.29 432.30 459.47 399.64 442.35 352.14
  A 0.70 0.70 0.0 0 1 442.61 351.32
  L 511.38 304.36
  A 0.69 0.69 0.0 0 1 512.37 304.59
  Q 527.54 331.50 550.28 345.68
  C 574.31 360.66 603.69 362.83 629.16 350.24
  C 649.07 340.41 660.75 319.51 651.86 298.09
  C 647.51 287.59 638.93 278.15 630.12 270.89
  Q 616.62 259.75 600.18 249.80
  C 575.61 234.92 550.93 219.76 533.25 197.16
  C 519.44 179.49 512.15 157.63 512.27 134.92
  Q 512.54 84.33 544.75 48.89
  C 574.04 16.66 618.13 0.52 661.47 0.65
  C 711.28 0.80 760.77 28.35 774.42 78.38
  A 0.89 0.88 -25.0 0 1 774.06 79.35
  L 705.40 126.16
  A 0.32 0.31 65.0 0 1 704.92 125.98
  C 698.33 102.94 678.94 87.52 655.24 85.15
  Q 632.21 82.85 615.02 97.76
  Z"
/>
<path fill="#1014c5" d="
  M 1645.40 91.61
  C 1633.30 85.23 1617.66 82.87 1604.33 86.56
  C 1585.29 91.84 1570.18 106.88 1567.90 126.89
  C 1565.59 147.15 1583.36 161.05 1598.66 170.17
  Q 1614.44 179.57 1631.04 189.33
  Q 1650.96 201.04 1668.56 215.86
  C 1694.49 237.70 1712.50 265.26 1712.51 299.88
  C 1712.51 314.55 1709.65 330.58 1704.76 344.60
  C 1687.75 393.34 1647.96 427.40 1597.79 439.43
  C 1542.23 452.75 1480.90 443.04 1440.41 400.64
  Q 1421.13 380.44 1410.88 352.60
  A 1.29 1.29 0.0 0 1 1411.36 351.09
  L 1479.96 304.24
  A 0.50 0.50 0.0 0 1 1480.69 304.41
  C 1496.31 332.66 1522.54 355.16 1555.25 358.12
  Q 1577.96 360.18 1597.77 350.13
  C 1617.57 340.08 1629.40 319.28 1620.05 297.61
  Q 1615.39 286.81 1605.07 276.86
  Q 1592.84 265.07 1575.10 253.93
  C 1548.84 237.45 1521.09 222.17 1501.95 197.52
  C 1487.07 178.36 1480.08 156.07 1480.69 132.08
  Q 1482.11 76.52 1522.03 40.06
  C 1550.82 13.77 1589.77 0.86 1628.92 0.65
  C 1678.88 0.38 1728.78 27.87 1742.76 78.15
  A 1.22 1.22 0.0 0 1 1742.27 79.48
  L 1673.97 126.05
  A 0.44 0.44 0.0 0 1 1673.30 125.81
  Q 1666.42 102.67 1645.40 91.61
  Z"
/>
<path fill="#1014c5" d="
  M 1045.75 177.70
  L 1029.19 262.44
  A 0.45 0.45 0.0 0 1 1028.75 262.80
  L 894.24 262.80
  A 0.45 0.45 0.0 0 0 893.80 263.17
  L 877.03 350.70
  A 0.45 0.45 0.0 0 0 877.47 351.23
  L 1035.48 351.21
  A 0.45 0.45 0.0 0 1 1035.93 351.75
  L 1019.38 436.38
  A 0.45 0.45 0.0 0 1 1018.94 436.74
  L 772.40 436.73
  A 0.45 0.45 0.0 0 1 771.95 436.19
  L 854.79 9.53
  A 0.45 0.45 0.0 0 1 855.23 9.17
  L 1101.77 9.17
  A 0.45 0.45 0.0 0 1 1102.22 9.71
  L 1085.95 93.37
  A 0.45 0.45 0.0 0 1 1085.51 93.73
  L 927.12 93.73
  A 0.45 0.45 0.0 0 0 926.68 94.09
  L 910.71 176.63
  A 0.45 0.45 0.0 0 0 911.16 177.17
  L 1045.30 177.16
  A 0.45 0.45 0.0 0 1 1045.75 177.70
  Z"
/>
<path fill="#1014c5" d="
  M 1325.74 196.21
  Q 1325.98 196.38 1326.28 196.38
  C 1343.58 196.39 1360.38 204.34 1372.21 216.63
  C 1386.09 231.03 1393.33 251.16 1394.95 271.07
  C 1398.53 314.82 1382.89 360.61 1351.39 392.13
  C 1321.24 422.29 1279.91 435.57 1238.00 436.66
  Q 1237.33 436.68 1217.99 436.69
  Q 1151.06 436.72 1084.06 436.70
  Q 1082.92 436.70 1083.23 435.60
  Q 1083.52 434.58 1083.72 433.58
  Q 1124.95 221.63 1166.10 9.46
  A 0.49 0.49 0.0 0 1 1166.58 9.07
  Q 1222.85 9.14 1275.62 9.09
  Q 1293.01 9.08 1309.06 13.37
  C 1350.11 24.34 1379.00 57.69 1379.72 100.74
  C 1380.29 134.43 1365.94 173.25 1335.15 191.56
  Q 1330.56 194.28 1325.81 195.69
  A 0.29 0.29 0.0 0 0 1325.74 196.21
  Z
  M 1281.05 96.08
  Q 1274.37 92.97 1266.91 92.82
  Q 1253.52 92.55 1238.85 92.75
  A 0.65 0.65 0.0 0 0 1238.21 93.28
  L 1222.27 175.76
  Q 1222.15 176.39 1222.79 176.39
  Q 1235.52 176.35 1249.28 176.37
  C 1274.00 176.41 1290.50 164.11 1297.03 140.29
  Q 1299.33 131.88 1299.35 126.22
  Q 1299.42 104.62 1281.05 96.08
  Z
  M 1239.50 352.82
  C 1260.22 352.80 1281.50 347.84 1296.06 332.82
  C 1309.06 319.41 1316.04 297.15 1309.39 278.87
  C 1301.95 258.39 1279.75 251.70 1260.13 251.61
  Q 1234.58 251.50 1207.69 251.59
  A 0.84 0.83 -84.6 0 0 1206.87 252.27
  L 1187.51 352.21
  Q 1187.37 352.92 1188.10 352.92
  Q 1213.73 352.83 1239.50 352.82
  Z"
/>
<path fill="#1014c5" d="
  M 635.04 874.18
  L 479.91 874.18
  A 0.32 0.32 0.0 0 0 479.64 874.34
  L 445.09 933.85
  A 0.32 0.32 0.0 0 1 444.82 934.01
  L 342.92 934.02
  A 0.32 0.32 0.0 0 1 342.65 933.53
  L 617.98 495.88
  A 0.32 0.32 0.0 0 1 618.25 495.73
  L 631.91 495.71
  A 0.32 0.32 0.0 0 1 632.22 495.96
  L 737.85 933.62
  A 0.32 0.32 0.0 0 1 737.54 934.02
  L 648.56 934.01
  A 0.32 0.32 0.0 0 1 648.25 933.76
  L 635.35 874.43
  A 0.32 0.32 0.0 0 0 635.04 874.18
  Z
  M 523.02 800.39
  A 0.40 0.40 0.0 0 0 523.37 800.99
  L 618.64 800.98
  A 0.40 0.40 0.0 0 0 619.03 800.49
  L 593.12 681.64
  A 0.40 0.40 0.0 0 0 592.38 681.53
  L 523.02 800.39
  Z"
/>
<path fill="#1014c5" d="
  M 2148.30 623.22
  C 2142.29 602.28 2125.60 587.35 2103.98 583.32
  Q 2079.76 578.81 2061.08 592.95
  C 2047.41 603.31 2038.12 623.06 2045.11 639.63
  C 2050.24 651.79 2062.91 661.15 2074.20 667.86
  C 2105.90 686.70 2138.46 703.82 2162.85 732.45
  Q 2193.87 768.87 2186.01 816.71
  C 2171.21 906.83 2087.92 951.53 2002.17 940.72
  C 1984.63 938.51 1966.40 933.02 1950.59 924.55
  Q 1904.36 899.76 1885.82 849.72
  A 0.91 0.91 0.0 0 1 1886.16 848.65
  L 1955.04 801.59
  A 0.44 0.44 0.0 0 1 1955.67 801.74
  C 1967.83 823.41 1985.54 841.64 2008.42 850.34
  Q 2034.88 860.40 2061.56 852.18
  C 2081.55 846.02 2100.36 829.78 2098.16 806.73
  C 2096.56 789.94 2083.53 776.00 2070.10 765.41
  Q 2060.11 757.52 2050.31 751.41
  C 2030.20 738.88 2010.51 727.65 1992.91 711.91
  C 1967.64 689.30 1954.19 660.99 1955.86 626.09
  Q 1958.29 575.00 1993.95 540.37
  C 2023.71 511.46 2066.19 497.20 2107.42 498.05
  C 2156.05 499.05 2204.42 526.48 2217.81 575.58
  Q 2218.03 576.38 2217.34 576.84
  L 2148.97 623.46
  Q 2148.47 623.81 2148.30 623.22
  Z"
/>
<path fill="#1014c5" d="
  M 105.85 809.99
  C 124.85 842.19 157.99 858.80 195.43 855.90
  C 231.90 853.08 265.89 831.69 292.87 807.93
  A 0.63 0.62 55.8 0 1 293.84 808.12
  L 331.02 881.90
  A 0.49 0.47 56.6 0 1 330.91 882.48
  C 282.31 924.68 219.79 946.99 155.54 941.46
  C 101.52 936.81 55.03 910.13 26.90 864.02
  C -7.47 807.67 -5.51 733.25 15.11 671.96
  Q 37.34 605.89 89.18 560.01
  C 122.14 530.83 163.42 509.88 207.01 501.80
  Q 227.22 498.06 246.37 498.57
  C 308.45 500.21 362.91 534.02 391.97 589.07
  A 0.65 0.64 56.0 0 1 391.82 589.85
  L 327.41 646.14
  A 0.64 0.64 0.0 0 1 326.45 646.01
  Q 313.81 626.68 298.87 612.27
  C 282.17 596.17 262.44 586.57 239.35 585.64
  C 198.18 583.99 159.56 605.08 132.85 635.41
  Q 105.36 666.63 94.81 707.97
  C 86.06 742.26 88.09 779.91 105.85 809.99
  Z"
/>
<path fill="#1014c5" d="
  M 1398.42 512.96
  Q 1451.08 536.44 1479.31 588.88
  Q 1479.63 589.46 1479.13 589.90
  L 1414.84 646.09
  A 0.69 0.69 0.0 0 1 1413.81 645.95
  C 1400.84 626.35 1384.59 607.18 1364.71 596.15
  C 1332.89 578.48 1292.78 584.60 1262.09 601.61
  C 1216.13 627.08 1185.87 674.56 1178.60 726.74
  C 1173.24 765.11 1182.48 806.73 1212.16 833.19
  C 1228.28 847.56 1248.78 855.43 1270.41 856.18
  C 1311.80 857.60 1349.97 834.49 1380.22 807.98
  A 0.66 0.66 0.0 0 1 1381.25 808.18
  L 1418.38 881.89
  A 0.54 0.53 56.7 0 1 1418.25 882.54
  C 1372.71 921.85 1315.59 943.93 1255.59 942.24
  C 1217.25 941.16 1180.23 929.52 1150.25 905.44
  C 1112.50 875.10 1092.80 829.57 1088.60 781.98
  Q 1084.95 740.74 1095.42 696.53
  C 1110.55 632.59 1147.60 577.35 1201.78 540.45
  Q 1240.41 514.14 1284.65 503.82
  C 1322.97 494.88 1362.57 496.99 1398.42 512.96
  Z"
/>
<path fill="#1014c5" d="
  M 1821.92 543.19
  C 1897.70 611.88 1890.30 733.60 1846.50 815.77
  C 1803.26 896.90 1720.04 949.73 1626.57 943.30
  C 1574.30 939.70 1527.28 916.67 1497.02 874.04
  C 1471.33 837.84 1461.61 793.08 1463.54 748.75
  C 1467.22 664.07 1507.75 583.20 1578.81 536.39
  Q 1618.42 510.29 1664.30 502.62
  C 1719.71 493.35 1779.70 504.92 1821.92 543.19
  Z
  M 1573.30 820.39
  C 1605.05 863.43 1661.96 866.78 1706.43 842.23
  C 1755.75 815.00 1786.45 759.90 1790.17 704.23
  C 1792.53 668.93 1782.38 631.84 1755.23 608.05
  C 1734.18 589.61 1706.21 582.59 1678.58 586.54
  C 1628.90 593.65 1588.80 631.24 1568.15 676.54
  C 1548.22 720.29 1543.15 779.51 1573.30 820.39
  Z"
/>
<path fill="#1014c5" d="
  M 1048.20 849.02
  L 1031.59 933.72
  A 0.38 0.38 0.0 0 1 1031.22 934.03
  L 781.06 934.03
  A 0.38 0.38 0.0 0 1 780.69 933.58
  L 863.55 506.84
  A 0.38 0.38 0.0 0 1 863.92 506.53
  L 951.79 506.53
  A 0.38 0.38 0.0 0 1 952.16 506.98
  L 886.03 848.12
  A 0.38 0.38 0.0 0 0 886.40 848.57
  L 1047.83 848.57
  A 0.38 0.38 0.0 0 1 1048.20 849.02
  Z"
/>
</svg>
